<svg xmlnsinkscape="http://www.inkscape.org/namespaces/inkscape" xmlnssodipodi="http://sodipodi.sourceforge.net/DTD/sodipodi-0.dtd" xmlns="http://www.w3.org/2000/svg" xmlnssvg="http://www.w3.org/2000/svg" xmlnsrdf="http://www.w3.org/1999/02/22-rdf-syntax-ns#" xmlnscc="http://creativecommons.org/ns#" xmlnsdc="http://purl.org/dc/elements/1.1/" viewBox="0 0 16.933333 21.1666675" version="1.1" x="0px" y="0px"><g><path style="color:#000000;" d="m 2.0797177,2.0606007 c -0.709639,0 -1.28674283,0.58333 -1.28674283,1.29449 v 7.6817003 c 0,0.71116 0.57710383,1.29295 1.28674283,1.29295 h 4.3418548 l -1.2774427,2.01383 H 3.6522317 a 0.26458399,0.26458399 0 0 0 -0.2656179,0.26562 0.26458399,0.26458399 0 0 0 0.2656179,0.26354 h 1.6386598 6.3515505 1.63866 a 0.26458399,0.26458399 0 0 0 0.263548,-0.26354 0.26458399,0.26458399 0 0 0 -0.263548,-0.26562 h -1.493967 l -1.27589,-2.01383 h 4.340302 c 0.709641,0 1.288811,-0.58179 1.288811,-1.29295 V 3.3550907 c 0,-0.71116 -0.57917,-1.29449 -1.288811,-1.29449 z m 0,0.52916 H 14.851547 c 0.424111,0 0.759645,0.33666 0.759645,0.76533 v 7.6817003 c 0,0.42867 -0.335534,0.76378 -0.759645,0.76378 H 6.9026802 a 0.26458399,0.26458399 0 0 0 -0.011369,0 H 2.0797177 c -0.4241086,0 -0.7575762,-0.33511 -0.7575762,-0.76378 V 3.3550907 c 0,-0.42867 0.3334676,-0.76533 0.7575762,-0.76533 z m 3.6504244,1.97456 a 0.26458399,0.26458399 0 0 0 -0.187071,0.076 0.26458399,0.26458399 0 0 0 -0.00207,0.37517 l 0.4950619,0.49713 -0.4950619,0.49713 a 0.26458399,0.26458399 0 0 0 0.00207,0.3731 0.26458399,0.26458399 0 0 0 0.3731049,0 l 0.4929928,-0.49506 0.4929928,0.49506 a 0.26458399,0.26458399 0 0 0 0.3731049,0 0.26458399,0.26458399 0 0 0 0.00207,-0.3731 l -0.4950592,-0.49713 0.4950592,-0.49713 a 0.26458399,0.26458399 0 0 0 -0.00207,-0.37517 0.26458399,0.26458399 0 0 0 -0.1875843,-0.076 0.26458399,0.26458399 0 0 0 -0.1855206,0.078 L 6.4091688,5.1379307 5.91566,4.6423507 a 0.26458399,0.26458399 0 0 0 -0.1855179,-0.078 z m 4.1134427,0 a 0.26458399,0.26458399 0 0 0 -0.1875843,0.076 0.26458399,0.26458399 0 0 0 -0.00207,0.37517 l 0.4950615,0.49713 -0.4950615,0.49713 a 0.26458399,0.26458399 0 0 0 0.00207,0.3731 0.26458399,0.26458399 0 0 0 0.3731025,0 l 0.492992,-0.49506 0.493512,0.49506 a 0.26458399,0.26458399 0 0 0 0.373102,0 0.26458399,0.26458399 0 0 0 0.0016,-0.3731 l -0.494544,-0.49713 0.495062,-0.49713 a 0.26458399,0.26458399 0 0 0 -0.0021,-0.37517 0.26458399,0.26458399 0 0 0 -0.185518,-0.076 0.26458399,0.26458399 0 0 0 -0.187584,0.078 l -0.493512,0.49558 -0.492992,-0.49558 a 0.26458399,0.26458399 0 0 0 -0.1855182,-0.078 z m -1.3766588,3.60908 c -0.9042956,0 -1.7488667,0.47044 -2.2499929,1.24644 a 0.26458399,0.26458399 0 0 0 0.078031,0.36535 0.26458399,0.26458399 0 0 0 0.366903,-0.0786 c 0.4076039,-0.63118 1.0838392,-1.00562 1.805059,-1.00562 0.7212171,0 1.3969391,0.37444 1.8045399,1.00562 a 0.26458399,0.26458399 0 0 0 0.365353,0.0786 0.26458399,0.26458399 0 0 0 0.07803,-0.36535 c -0.501126,-0.776 -1.343631,-1.24644 -2.247923,-1.24644 z M 7.0489234,12.329741 H 9.88441 l 1.27589,2.01383 H 5.7714833 Z" fill="#000000" stroke-width="1" stroke-linecap="round"/></g><text x="0" y="31.933334" fill="#000000" font-size="5px" font-weight="bold" font-family="'Helvetica Neue', Helvetica, Arial-Unicode, Arial, Sans-serif">Created by Alzam</text><text x="0" y="36.933334" fill="#000000" font-size="5px" font-weight="bold" font-family="'Helvetica Neue', Helvetica, Arial-Unicode, Arial, Sans-serif">from the Noun Project</text></svg>
